<?xml version="1.0" encoding="utf-8"?>
<!-- Generator: Adobe Illustrator 22.0.1, SVG Export Plug-In . SVG Version: 6.00 Build 0)  -->
<svg version="1.1" id="Layer_1" xmlns="http://www.w3.org/2000/svg" xmlns:xlink="http://www.w3.org/1999/xlink" x="0px" y="0px"
	 viewBox="0 0 500 500" style="enable-background:new 0 0 500 500;" xml:space="preserve">
<style type="text/css">
	.st0{fill:#FFFFFF;}
</style>
<g>
	<path class="st0" d="M250,33C132.8,33,37.4,130.3,37.4,250S132.8,467,250,467s212.6-97.3,212.6-217S367.2,33,250,33z M250,431.6
		c-97.7,0-177.1-81.5-177.1-181.6S152.3,68.4,250,68.4S427.1,149.9,427.1,250S347.7,431.6,250,431.6z"/>
	<polygon class="st0" points="267.7,137.3 232.3,137.3 232.3,232.3 137.3,232.3 137.3,267.7 232.3,267.7 232.3,362.7 267.7,362.7 
		267.7,267.7 362.7,267.7 362.7,232.3 267.7,232.3 	"/>
</g>
</svg>
