<?xml version="1.0" encoding="utf-8"?>
<!-- Generator: Adobe Illustrator 19.2.0, SVG Export Plug-In . SVG Version: 6.00 Build 0)  -->
<svg version="1.1" id="Layer_1" xmlns="http://www.w3.org/2000/svg" xmlns:xlink="http://www.w3.org/1999/xlink" x="0px" y="0px"
	 viewBox="0 0 656.4 348.4" style="enable-background:new 0 0 656.4 348.4;" xml:space="preserve">
<style type="text/css">
	.st0{fill:none;}
	.st1{opacity:0.88;}
	.st2{opacity:0.76;}
</style>
<g>
	<polygon points="183.3,136.2 20,136.2 20,175.5 78.3,175.5 78.3,294.8 127,294.8 127,175.5 183.3,175.5 	"/>
	<path d="M332.3,227.2c14.3-7.9,21.8-25.3,21.8-44.3c0-25.8-23.9-46.8-49.8-46.8c-2.2,0-44.4,0-46.5,0l0,0h-0.1h-41.5v30.7v128h47.3
		v-59.3H282l28.7,59.3H365L332.3,227.2z M284.5,205.5c-4.8,0-10.8,0-15.1,0H264v-4.8v-29.4v-4.8h20.5l0,0c12.4,0,21.5,8.8,21.5,19.6
		S296.9,205.5,284.5,205.5z"/>
	<path class="st0" d="M492.3,140.6"/>
	<path class="st1" d="M512.3,121.9c-13.8,0-25,10.9-25.5,24.5c0.3-0.7,0.6-1.4,0.9-2.1c1.1-2.3,3-2.9,4.8-2.5
		c2.4-8.6,10.3-15,19.7-15c11.3,0,20.5,9.2,20.5,20.5c0,6.5-3.1,12.3-7.8,16.1c1.5,0.9,2.3,2.7,2.4,4.5c6.3-4.6,10.5-12.1,10.5-20.6
		C537.8,133.3,526.4,121.9,512.3,121.9z"/>
	<path class="st2" d="M570.5,20c-25.4,0-46,20.6-46,46s20.6,46,46,46s46-20.6,46-46S595.9,20,570.5,20z M570.5,106.5
		c-22.4,0-40.5-18.1-40.5-40.5s18.1-40.5,40.5-40.5c22.4,0,40.5,18.1,40.5,40.5S592.9,106.5,570.5,106.5z"/>
	<path d="M525.3,163.3l-13.3,8.6l-2.7,2.3l-2.7,2.9l-2.5,3.6l-1.7,4.4l-1.1,5.4l-0.4,6l0.4,7l0,0c1.2,3.8,1.9,7.8,1.9,12
		c0,21.5-17.5,39-39,39c-21.5,0-39-17.5-39-39s17.5-39,39-39c0.3,0,0.6,0,0.9,0l0,0l6.4-1.9l5.7-2.2l3.8-2.5l2.6-2l2.9-3.5l1.9-2.9
		l1.4-3.8l2.8-15.9c-8.7-3.2-18.6-6.4-28.5-6.4c-44.2,0-80,35.8-80,80s35.8,80,80,80c44.2,0,80-35.8,80-80
		C544.2,196.5,536.4,177,525.3,163.3z"/>
</g>
</svg>
